<svg width="512" height="512" viewBox="0 0 512 512" fill="none" xmlns="http://www.w3.org/2000/svg">
<g clip-path="url(#clip0_3_11)">
<path d="M378.914 192.855C378.914 190.225 377.854 187.645 375.984 185.785C374.124 183.925 371.545 182.855 368.914 182.855C366.284 182.855 363.704 183.925 361.845 185.785C359.985 187.645 358.914 190.225 358.914 192.855C358.914 195.485 359.984 198.065 361.845 199.925C363.704 201.785 366.284 202.855 368.914 202.855C371.545 202.855 374.124 201.785 375.984 199.925C377.855 198.066 378.914 195.485 378.914 192.855Z" fill="#D5B665"/>
<path d="M380.266 264.799C382.896 264.799 385.476 263.729 387.335 261.859C389.195 260.009 390.266 257.429 390.266 254.789C390.266 252.159 389.196 249.589 387.335 247.719C385.476 245.859 382.896 244.799 380.266 244.799C377.636 244.799 375.056 245.859 373.196 247.719C371.336 249.589 370.266 252.159 370.266 254.789C370.266 257.429 371.335 260.009 373.196 261.859C375.056 263.728 377.636 264.799 380.266 264.799Z" fill="#D5B665"/>
<path d="M422.138 206.055C422.138 208.695 423.198 211.265 425.058 213.135C426.917 214.995 429.497 216.055 432.127 216.055C434.768 216.055 437.348 214.995 439.207 213.135C441.067 211.265 442.138 208.695 442.138 206.055C442.138 203.425 441.068 200.855 439.207 198.985C437.348 197.125 434.768 196.065 432.127 196.065C429.497 196.065 426.917 197.125 425.058 198.985C423.198 200.855 422.138 203.425 422.138 206.055Z" fill="#D5B665"/>
<path d="M423.587 132.783C421.728 130.923 419.148 129.853 416.518 129.853C413.877 129.853 411.298 130.923 409.438 132.783C407.578 134.643 406.518 137.223 406.518 139.853C406.518 142.483 407.578 145.063 409.438 146.923C411.308 148.783 413.877 149.853 416.518 149.853C419.148 149.853 421.718 148.783 423.587 146.923C425.447 145.063 426.518 142.483 426.518 139.853C426.518 137.223 425.448 134.643 423.587 132.783Z" fill="#D5B665"/>
<path d="M97.2236 360.793C94.5936 360.793 92.0136 361.853 90.1536 363.723C88.2946 365.583 87.2236 368.163 87.2236 370.793C87.2236 373.423 88.2936 376.003 90.1536 377.863C92.0136 379.723 94.5936 380.793 97.2236 380.793C99.8636 380.793 102.434 379.723 104.294 377.863C106.164 376.003 107.224 373.423 107.224 370.793C107.224 368.163 106.164 365.583 104.294 363.723C102.434 361.853 99.8626 360.793 97.2236 360.793Z" fill="#D5B665"/>
<path d="M168.366 369.054C165.736 369.054 163.156 370.114 161.287 371.984C159.427 373.844 158.366 376.424 158.366 379.054C158.366 381.684 159.427 384.264 161.287 386.124C163.156 387.984 165.726 389.054 168.366 389.054C170.997 389.054 173.576 387.984 175.436 386.124C177.296 384.264 178.366 381.684 178.366 379.054C178.366 376.424 177.297 373.844 175.436 371.984C173.567 370.113 170.997 369.054 168.366 369.054Z" fill="#D5B665"/>
<path d="M132.585 420.865C129.955 420.865 127.375 421.935 125.515 423.795C123.655 425.655 122.585 428.235 122.585 430.875C122.585 433.505 123.654 436.075 125.515 437.945C127.375 439.805 129.955 440.865 132.585 440.865C135.225 440.865 137.795 439.805 139.654 437.945C141.524 436.075 142.594 433.505 142.594 430.875C142.594 428.235 141.524 425.665 139.654 423.795C137.795 421.935 135.225 420.865 132.585 420.865Z" fill="#D5B665"/>
<path d="M203.728 423.085C201.088 423.085 198.518 424.155 196.658 426.015C194.789 427.875 193.728 430.455 193.728 433.085C193.728 435.725 194.789 438.295 196.658 440.155C198.518 442.015 201.089 443.085 203.728 443.085C206.358 443.085 208.938 442.015 210.798 440.155C212.657 438.295 213.728 435.715 213.728 433.085C213.728 430.455 212.658 427.875 210.798 426.015C208.938 424.155 206.358 423.085 203.728 423.085Z" fill="#D5B665"/>
<path d="M239.5 365.223C236.859 365.223 234.29 366.293 232.43 368.153C230.57 370.013 229.5 372.593 229.5 375.223C229.5 377.853 230.569 380.433 232.43 382.293C234.291 384.153 236.86 385.223 239.5 385.223C242.13 385.223 244.71 384.153 246.569 382.293C248.429 380.433 249.5 377.853 249.5 375.223C249.5 372.593 248.43 370.013 246.569 368.153C244.71 366.293 242.13 365.223 239.5 365.223Z" fill="#D5B665"/>
<path d="M491.481 87.5018C488.831 82.6555 482.754 80.8755 477.91 83.5246C473.062 86.1737 471.282 92.251 473.931 97.0972C505.25 154.379 494.845 226.662 448.63 272.876C418.142 303.365 376.711 318.823 333.958 315.931C322.144 245.545 266.454 189.855 196.067 178.041C193.177 135.289 208.632 93.858 239.122 63.3687C285.337 17.1547 357.622 6.7503 414.903 38.0676C419.749 40.7178 425.825 38.9367 428.474 34.0905C431.123 29.2443 429.342 23.168 424.496 20.5179C393.262 3.44115 356.536 -3.30714 321.075 1.52207C284.427 6.51128 251.2 23.007 224.981 49.2251C191.201 83.0046 173.686 128.613 175.92 175.895C173.342 175.777 170.751 175.709 168.145 175.709C75.4292 175.71 0 251.139 0 343.854C0 436.57 75.4292 511.999 168.145 511.999C260.861 511.999 336.291 436.57 336.291 343.854C336.291 341.248 336.223 338.658 336.105 336.079C338.789 336.206 341.469 336.287 344.142 336.286C388.526 336.284 430.915 318.878 462.775 287.018C488.994 260.799 505.49 227.571 510.479 190.923C515.305 155.468 508.559 118.738 491.481 87.5018V87.5018ZM168.145 491.998C86.4577 491.998 20.0009 425.541 20.0009 343.854C20.0009 262.166 86.4577 195.709 168.145 195.709C249.833 195.709 316.291 262.166 316.291 343.854C316.291 425.541 249.832 491.998 168.145 491.998Z" fill="#D5B665"/>
<path d="M455.699 66.299C458.329 66.299 460.909 65.229 462.769 63.369C464.628 61.509 465.699 58.929 465.699 56.299C465.699 53.659 464.629 51.089 462.769 49.229C460.909 47.369 458.338 46.299 455.699 46.299C453.069 46.299 450.489 47.369 448.629 49.229C446.77 51.089 445.699 53.659 445.699 56.299C445.699 58.929 446.769 61.509 448.629 63.369C450.489 65.229 453.069 66.299 455.699 66.299Z" fill="#D5B665"/>
</g>
<defs>
<clipPath id="clip0_3_11">
<rect width="512" height="512" fill="white"/>
</clipPath>
</defs>
</svg>
