<svg width="512" height="512" viewBox="0 0 512 512" fill="none" xmlns="http://www.w3.org/2000/svg">
<g clip-path="url(#clip0_3_144)">
<path d="M402 292H301C295.477 292 291 296.478 291 302C291 307.522 295.477 312 301 312H402C451.626 312 492 352.374 492 402C492 451.626 451.626 492 402 492H110C60.374 492 20 451.626 20 402C20 355.754 55.063 317.549 100 312.559V374C100 394.402 120.636 411 146 411C171.364 411 192 394.402 192 374C192 353.598 171.364 337 146 337C136.357 337 127.402 339.404 120 343.499V312H211C216.523 312 221 307.522 221 302C221 296.478 216.523 292 211 292H120V150.74L260.193 86.251C263.74 84.619 266.014 81.071 266.014 77.166C266.014 73.261 263.741 69.713 260.193 68.081L114.179 0.915C111.083 -0.509 107.475 -0.259 104.605 1.58C101.736 3.419 100 6.592 100 10V292.459C44.015 297.529 0 344.717 0 402C0 462.654 49.346 512 110 512H402C462.654 512 512 462.654 512 402C512 341.346 462.654 292 402 292ZM146 357C160.093 357 172 364.785 172 374C172 383.215 160.093 391 146 391C131.907 391 120 383.215 120 374C120 364.785 131.907 357 146 357ZM120 128.726V25.607L232.085 77.167L120 128.726Z" fill="#D5B665"/>
<path d="M413.877 424C413.877 405.252 398.625 390 379.877 390C361.129 390 345.877 405.252 345.877 424C345.877 442.748 361.129 458 379.877 458C398.625 458 413.877 442.748 413.877 424ZM365.877 424C365.877 416.28 372.157 410 379.877 410C387.597 410 393.877 416.28 393.877 424C393.877 431.72 387.597 438 379.877 438C372.157 438 365.877 431.72 365.877 424Z" fill="#D5B665"/>
<path d="M248.93 294.93C247.07 296.79 246 299.37 246 302C246 304.63 247.07 307.21 248.93 309.069C250.79 310.929 253.37 312 256 312C258.63 312 261.21 310.93 263.07 309.069C264.93 307.21 266 304.63 266 302C266 299.37 264.93 296.79 263.07 294.93C261.21 293.07 258.63 292 256 292C253.37 292 250.79 293.069 248.93 294.93Z" fill="#D5B665"/>
</g>
<defs>
<clipPath id="clip0_3_144">
<rect width="512" height="512" fill="white"/>
</clipPath>
</defs>
</svg>
