<svg width="512" height="512" viewBox="0 0 512 512" fill="none" xmlns="http://www.w3.org/2000/svg">
<g clip-path="url(#clip0_3_67)">
<path d="M509.797 440.281L501.539 410.54C497.953 397.624 489.448 387.07 477.589 380.821C465.731 374.574 452.218 373.527 439.537 377.87L352.16 407.805C345.916 409.946 338.99 407.349 335.69 401.632L293.382 328.249L325.51 272.637C328.272 267.857 326.636 261.741 321.855 258.979C317.073 256.216 310.959 257.852 308.197 262.635L281.836 308.264L267.546 283.529L352.243 136.923L373.671 149.302L353.204 184.729C350.442 189.51 352.078 195.625 356.859 198.388C361.64 201.15 367.755 199.512 370.518 194.732L461.422 37.3822C462.748 35.0867 463.108 32.3572 462.422 29.7958C461.737 27.2343 460.062 25.0498 457.765 23.724L419.023 1.34272C414.242 -1.4197 408.128 0.216954 405.366 4.99895L256.001 263.545L106.634 4.99895C103.871 0.217954 97.7556 -1.4187 92.9756 1.34372L54.2337 23.725C51.9382 25.0518 50.2626 27.2353 49.5767 29.7968C48.8908 32.3582 49.2508 35.0877 50.5775 37.3832L218.617 328.251L176.309 401.634C173.01 407.351 166.083 409.943 159.839 407.807L72.4619 377.872C59.7826 373.526 46.2684 374.577 34.4099 380.823C22.5523 387.072 14.0461 397.626 10.4599 410.542L2.2026 440.283C-2.56741 457.467 0.885873 475.465 11.6786 489.663C22.4714 503.861 38.8899 512.003 56.7232 512.003H156.062C175.352 512.003 193.323 501.622 202.96 484.913L255.999 392.959L309.037 484.913C318.675 501.622 336.645 512.003 355.935 512.003H455.274C473.107 512.003 489.526 503.86 500.319 489.663C511.111 475.466 514.567 457.465 509.797 440.281V440.281ZM417.68 23.6581L439.107 36.0365L383.674 131.988L362.246 119.609L417.68 23.6581ZM280.746 395.819L138.33 149.303L159.758 136.924L302.178 383.446L280.746 395.819ZM94.3214 23.6581L149.755 119.61L128.327 131.989L72.8938 36.0365L94.3214 23.6581ZM185.639 474.921C179.562 485.459 168.228 492.005 156.063 492.005H56.7242C45.1926 492.005 34.5768 486.739 27.5983 477.56C20.6197 468.381 18.3862 456.743 21.4716 445.63L29.7288 415.889C31.8254 408.338 36.7984 402.166 43.7319 398.513C47.8531 396.341 52.3141 395.244 56.8132 395.244C59.8845 395.244 62.9739 395.756 65.9813 396.786L153.358 426.721C168.623 431.952 185.559 425.604 193.627 411.63L199.882 400.795L221.268 413.143L185.639 474.921ZM231.254 395.819L209.823 383.447L230.165 348.236L244.455 372.971L231.254 395.819ZM484.402 477.559C477.423 486.739 466.807 492.004 455.276 492.004H355.937C343.772 492.004 332.439 485.458 326.361 474.92L290.732 413.143L312.118 400.795L318.373 411.63C326.441 425.605 343.375 431.954 358.641 426.721L446.018 396.786C453.432 394.245 461.334 394.857 468.267 398.513C475.201 402.166 480.174 408.338 482.27 415.889L490.528 445.63C493.614 456.742 491.38 468.38 484.402 477.559V477.559Z" fill="#D5B665"/>
<path d="M256.128 117.084C288.407 117.084 314.668 90.822 314.668 58.5428C314.668 26.2635 288.407 0.00199223 256.128 0.00199223C223.848 0.00199223 197.587 26.2635 197.587 58.5428C197.587 90.822 223.848 117.084 256.128 117.084ZM256.128 19.9978C277.381 19.9978 294.673 37.2892 294.673 58.5428C294.673 79.7963 277.381 97.0877 256.128 97.0877C234.874 97.0877 217.583 79.7963 217.583 58.5428C217.582 37.2892 234.873 19.9978 256.128 19.9978Z" fill="#D5B665"/>
<path d="M332.285 221.619C330.425 223.478 329.355 226.058 329.355 228.687C329.355 231.317 330.425 233.896 332.285 235.756C334.144 237.615 336.724 238.685 339.353 238.685C341.993 238.685 344.562 237.615 346.422 235.756C348.291 233.896 349.351 231.317 349.351 228.687C349.351 226.058 348.291 223.478 346.422 221.619C344.562 219.759 341.993 218.689 339.353 218.689C336.723 218.688 334.143 219.759 332.285 221.619Z" fill="#D5B665"/>
</g>
<defs>
<clipPath id="clip0_3_67">
<rect width="512" height="512" fill="white"/>
</clipPath>
</defs>
</svg>
