<svg width="512" height="512" viewBox="0 0 512 512" fill="none" xmlns="http://www.w3.org/2000/svg">
<g clip-path="url(#clip0_3_150)">
<path d="M262.628 309.244C293.874 309.244 325.121 297.35 348.91 273.562C383.663 238.808 394.184 186.919 375.712 141.37C373.637 136.251 367.804 133.778 362.686 135.86C357.567 137.935 355.1 143.767 357.176 148.886C372.621 186.972 363.823 230.358 334.766 259.417C294.989 299.193 230.269 299.193 190.492 259.417C150.716 219.64 150.716 154.921 190.492 115.144C219.4 86.2358 262.611 77.3694 300.572 92.5528C305.699 94.6001 311.52 92.1098 313.573 86.9809C315.625 81.8521 313.13 76.0312 308.001 73.9798C262.598 55.8229 210.921 66.4266 176.347 101C128.773 148.576 128.773 225.986 176.347 273.562C200.134 297.35 231.382 309.244 262.628 309.244Z" fill="#D5B665"/>
<path d="M202.14 181.734C200.271 183.593 199.21 186.174 199.21 188.804C199.21 191.436 200.271 194.015 202.14 195.875C204.001 197.736 206.572 198.806 209.212 198.806C211.842 198.806 214.422 197.737 216.283 195.875C218.142 194.005 219.213 191.436 219.213 188.804C219.213 186.174 218.143 183.593 216.283 181.734C214.422 179.874 211.842 178.803 209.212 178.803C206.572 178.803 203.992 179.873 202.14 181.734Z" fill="#D5B665"/>
<path d="M255.71 188.735C253.849 190.595 252.779 193.175 252.779 195.805C252.779 198.437 253.848 201.016 255.71 202.876C257.569 204.737 260.149 205.807 262.781 205.807C265.411 205.807 267.992 204.738 269.851 202.876C271.711 201.006 272.783 198.437 272.783 195.805C272.783 193.175 271.712 190.595 269.851 188.735C267.992 186.875 265.411 185.804 262.781 185.804C260.149 185.804 257.569 186.874 255.71 188.735V188.735Z" fill="#D5B665"/>
<path d="M228.764 232.641C226.905 234.512 225.844 237.092 225.844 239.722C225.844 242.353 226.905 244.933 228.764 246.794C230.635 248.654 233.205 249.724 235.846 249.724C238.476 249.724 241.046 248.655 242.917 246.794C244.777 244.933 245.837 242.353 245.837 239.722C245.837 237.092 244.777 234.512 242.917 232.641C241.046 230.782 238.476 229.721 235.846 229.721C233.206 229.721 230.626 230.782 228.764 232.641Z" fill="#D5B665"/>
<path d="M282.344 234.522C280.484 236.392 279.414 238.972 279.414 241.603C279.414 244.234 280.483 246.804 282.344 248.674C284.204 250.534 286.785 251.604 289.415 251.604C292.046 251.604 294.626 250.535 296.485 248.674C298.346 246.804 299.417 244.234 299.417 241.603C299.417 238.972 298.347 236.392 296.485 234.522C294.626 232.662 292.046 231.601 289.415 231.601C286.785 231.601 284.204 232.662 282.344 234.522Z" fill="#D5B665"/>
<path d="M306.357 192.566C306.357 195.196 307.418 197.777 309.288 199.636C311.148 201.496 313.719 202.567 316.359 202.567C318.989 202.567 321.569 201.497 323.43 199.636C325.29 197.766 326.36 195.196 326.36 192.566C326.36 189.924 325.291 187.355 323.43 185.495C321.569 183.624 318.989 182.564 316.359 182.564C313.718 182.564 311.148 183.624 309.288 185.495C307.418 187.344 306.357 189.924 306.357 192.566Z" fill="#D5B665"/>
<path d="M400.476 425.54C394.455 425.54 388.474 426.504 382.787 428.367C374.239 413.99 360.504 403.708 344.514 399.504L417.275 292.827C467.967 218.508 458.589 118.398 394.976 54.7848C321.929 -18.2619 203.073 -18.2609 130.025 54.7848C66.4126 118.398 57.0351 218.509 107.726 292.827L180.576 399.635C162.962 404.455 148.025 416.742 139.954 433.153C131.412 428.186 121.678 425.54 111.524 425.54C80.2478 425.54 54.8037 450.984 54.8037 482.261C54.8037 490.616 56.59 498.679 60.1146 506.228C61.7588 509.75 65.2924 512 69.178 512H442.824C446.709 512 450.243 509.75 451.887 506.228C455.411 498.679 457.198 490.616 457.198 482.261C457.196 450.985 431.751 425.54 400.476 425.54V425.54ZM144.17 68.93C209.416 3.68159 315.583 3.68159 380.832 68.93C437.652 125.751 446.029 215.173 400.749 281.556L297.473 432.974C289.2 428.254 279.642 425.541 269.455 425.541C263.434 425.541 257.453 426.505 251.766 428.368C241.478 411.065 223.678 399.688 203.474 397.708L124.252 281.555C78.9726 215.171 87.3499 125.75 144.17 68.93V68.93ZM74.8069 482.261C74.8069 462.015 91.2786 445.543 111.524 445.543C121.414 445.543 130.693 449.424 137.649 456.47C140.224 459.077 144.02 460.071 147.541 459.052C151.062 458.035 153.745 455.175 154.534 451.596C158.902 431.782 176.819 417.402 197.137 417.402C215.141 417.402 231.067 428.224 237.707 444.971C238.765 447.639 240.917 449.723 243.616 450.696C246.315 451.667 249.304 451.432 251.818 450.052C257.189 447.103 263.288 445.543 269.455 445.543C289.7 445.543 306.172 462.015 306.172 482.261C306.172 485.59 305.734 488.846 304.867 491.996H76.1111C75.244 488.846 74.8069 485.59 74.8069 482.261ZM435.888 491.997H325.333C325.886 488.805 326.175 485.558 326.175 482.262C326.175 468.412 321.178 455.712 312.903 445.852L332.179 417.591C348.503 419.07 362.587 429.484 368.728 444.971C369.786 447.639 371.937 449.723 374.637 450.696C377.335 451.667 380.325 451.432 382.839 450.052C388.21 447.103 394.309 445.543 400.476 445.543C420.721 445.543 437.193 462.015 437.193 482.261C437.193 485.59 436.755 488.846 435.888 491.997V491.997Z" fill="#D5B665"/>
<path d="M341.833 118.073C344.464 118.073 347.044 117.003 348.904 115.142C350.764 113.282 351.834 110.702 351.834 108.071C351.834 105.441 350.765 102.86 348.904 101C347.044 99.1409 344.473 98.0697 341.833 98.0697C339.202 98.0697 336.622 99.1399 334.763 101C332.902 102.86 331.831 105.441 331.831 108.071C331.831 110.702 332.901 113.282 334.763 115.142C336.633 117.003 339.202 118.073 341.833 118.073Z" fill="#D5B665"/>
</g>
<defs>
<clipPath id="clip0_3_150">
<rect width="512" height="512" fill="white"/>
</clipPath>
</defs>
</svg>
