<svg width="512" height="512" viewBox="0 0 512 512" fill="none" xmlns="http://www.w3.org/2000/svg">
<path d="M402 308.543V262.627H449.5C470.453 262.627 487.5 245.58 487.5 224.627C487.5 203.674 470.453 186.627 449.5 186.627H420C399.047 186.627 382 203.674 382 224.627V252.627V303.761C374.833 302.608 367.487 302 360 302H310V276.113C338.803 258.066 358 226.044 358 189.619V102C358 45.757 312.243 0 256 0C199.757 0 154 45.757 154 102V189.619C154 226.045 173.197 258.066 202 276.113V302H152C144.513 302 137.167 302.608 130 303.761V252.627V224.627C130 203.674 112.953 186.627 92 186.627H62.5C41.547 186.627 24.5 203.674 24.5 224.627C24.5 245.58 41.547 262.627 62.5 262.627H110V308.543C54.381 326.354 14 378.546 14 440V502C14 507.522 18.477 512 24 512H211.127C216.65 512 221.127 507.522 221.127 502C221.127 496.478 216.65 492 211.127 492H34V440C34 384.803 72.097 338.344 123.375 325.518L186.345 388.488C188.22 390.363 190.764 391.417 193.416 391.417C196.068 391.417 198.612 390.363 200.487 388.488L237.416 351.559L248.928 363.071C250.803 364.946 253.347 366 255.999 366C258.651 366 261.195 364.946 263.07 363.071L274.582 351.559L311.511 388.488C313.464 390.44 316.023 391.417 318.582 391.417C321.141 391.417 323.701 390.44 325.653 388.488L388.623 325.518C439.903 338.344 478 384.804 478 440V492H301.127C295.604 492 291.127 496.478 291.127 502C291.127 507.522 295.604 512 301.127 512H488C493.523 512 498 507.522 498 502V440C498 378.546 457.619 326.354 402 308.543V308.543ZM402 224.627C402 214.702 410.075 206.627 420 206.627H449.5C459.425 206.627 467.5 214.702 467.5 224.627C467.5 234.552 459.425 242.627 449.5 242.627H402V224.627ZM44.5 224.627C44.5 214.702 52.575 206.627 62.5 206.627H92C101.925 206.627 110 214.702 110 224.627V242.627H62.5C52.575 242.627 44.5 234.552 44.5 224.627ZM226 50C226 33.458 239.458 20 256 20C272.542 20 286 33.458 286 50V113.904H226V50ZM336.665 133.905C332.265 150.022 317.494 161.904 300 161.904H212C194.506 161.904 179.735 150.022 175.335 133.904L336.665 133.905ZM338 102V113.904H306V50C306 44.945 305.24 40.066 303.838 35.463C324.507 50.366 338 74.63 338 102ZM174 102C174 74.63 187.493 50.366 208.162 35.463C206.76 40.066 206 44.945 206 50V113.904H174V102ZM174 189.619V167.666C184.187 176.523 197.473 181.904 212 181.904H300C314.527 181.904 327.813 176.523 338 167.666V189.619C338 234.834 301.215 271.619 256 271.619C210.785 271.619 174 234.834 174 189.619V189.619ZM193.417 367.274L148.21 322.067C149.469 322.027 207.858 322 207.858 322L223.275 337.417L193.417 367.274ZM256 341.857L222 307.857V285.784C232.64 289.557 244.083 291.618 256 291.618C267.917 291.618 279.36 289.557 290 285.784V307.857L256 341.857ZM318.583 367.274L288.725 337.416L304.142 322C304.142 322 362.531 322.027 363.791 322.067L318.583 367.274Z" fill="#D5B665"/>
<path d="M276.071 236.374C279.976 232.469 279.976 226.137 276.071 222.231C272.166 218.327 265.834 218.327 261.928 222.231C260.345 223.815 258.239 224.687 255.999 224.687C253.759 224.687 251.654 223.815 250.07 222.231C246.165 218.327 239.833 218.327 235.927 222.231C232.022 226.136 232.022 232.468 235.927 236.374C241.288 241.735 248.416 244.687 255.998 244.687C263.58 244.687 270.71 241.735 276.071 236.374V236.374Z" fill="#D5B665"/>
<path d="M416.086 429.983C416.086 409.03 399.039 391.983 378.086 391.983C357.133 391.983 340.086 409.03 340.086 429.983C340.086 450.936 357.133 467.983 378.086 467.983C399.039 467.983 416.086 450.937 416.086 429.983ZM360.086 429.983C360.086 420.058 368.161 411.983 378.086 411.983C388.011 411.983 396.086 420.058 396.086 429.983C396.086 439.908 388.011 447.983 378.086 447.983C368.161 447.983 360.086 439.908 360.086 429.983Z" fill="#D5B665"/>
<path d="M256.13 492C253.5 492 250.92 493.069 249.06 494.93C247.19 496.79 246.13 499.37 246.13 502C246.13 504.63 247.19 507.21 249.06 509.069C250.92 510.929 253.5 512 256.13 512C258.76 512 261.34 510.93 263.2 509.069C265.06 507.21 266.13 504.63 266.13 502C266.13 499.37 265.06 496.79 263.2 494.93C261.33 493.069 258.76 492 256.13 492Z" fill="#D5B665"/>
</svg>
