<svg width="512" height="512" viewBox="0 0 512 512" fill="none" xmlns="http://www.w3.org/2000/svg">
<g clip-path="url(#clip0_3_287)">
<path d="M509.981 152.053L424.314 38.602C422.424 36.099 419.47 34.628 416.334 34.628H367.682L335.983 2.929L335.968 2.944C334.122 1.099 331.606 0 328.911 0H183.089C180.391 0 177.871 1.101 176.024 2.951C176.022 2.943 176.019 2.937 176.017 2.929L144.318 34.628H95.667C92.531 34.628 89.576 36.099 87.687 38.602L2.01997 152.053C-0.986028 156.034 -0.598028 161.622 2.92897 165.15L68.993 231.214C70.868 233.089 73.412 234.143 76.064 234.143C78.716 234.143 81.26 233.089 83.135 231.214L90 224.35V502C90 507.523 94.477 512 100 512H256H412C417.523 512 422 507.523 422 502V224.35L428.864 231.214C430.739 233.089 433.283 234.143 435.935 234.143C438.587 234.143 441.131 233.089 443.006 231.214L509.07 165.15C512.599 161.623 512.987 156.035 509.981 152.053V152.053ZM351.306 46.537L318.744 109.72L288.758 79.734L329.965 25.196L351.306 46.537ZM308.822 20L256 89.912L203.178 20H308.822ZM182.036 25.195L223.243 79.733L193.257 109.719L160.695 46.536L182.036 25.195ZM76.065 210.002L23.225 157.162L37.937 137.678L93.163 192.904L76.065 210.002ZM402 448H301.063C295.54 448 291.063 452.477 291.063 458C291.063 463.523 295.54 468 301.063 468H402V492H256H110V468H211.063C216.586 468 221.063 463.523 221.063 458C221.063 452.477 216.586 448 211.063 448H110V204.35L134.338 180.011C138.243 176.106 138.243 169.774 134.338 165.869C130.433 161.964 124.101 161.964 120.196 165.869L107.304 178.761L50.104 121.562L100.646 54.628H142.365L181.754 131.057C183.217 133.895 185.947 135.864 189.102 136.356C189.616 136.437 190.132 136.476 190.644 136.476C193.275 136.476 195.825 135.437 197.715 133.547L235.417 95.845L248.022 112.529C249.912 115.03 252.865 116.501 256.001 116.501C259.136 116.501 262.09 115.031 263.98 112.529L276.585 95.845L314.287 133.547C316.177 135.437 318.727 136.476 321.358 136.476C321.87 136.476 322.386 136.436 322.9 136.356C326.055 135.864 328.785 133.895 330.248 131.057L369.637 54.628H411.356L461.898 121.562L404.698 178.761L391.806 165.869C387.9 161.963 381.569 161.964 377.664 165.869C373.759 169.774 373.758 176.106 377.664 180.011L402 204.35V448ZM435.936 210.002L418.838 192.904L474.064 137.678L488.776 157.162L435.936 210.002Z" fill="#D5B665"/>
<path d="M312.018 172.144C288.859 172.144 270.018 190.985 270.018 214.144C270.018 237.303 288.859 256.144 312.018 256.144C335.177 256.144 354.018 237.303 354.018 214.144C354.018 190.985 335.177 172.144 312.018 172.144ZM312.018 236.144C299.887 236.144 290.018 226.275 290.018 214.144C290.018 202.013 299.887 192.144 312.018 192.144C324.149 192.144 334.018 202.013 334.018 214.144C334.018 226.275 324.149 236.144 312.018 236.144Z" fill="#D5B665"/>
<path d="M256.06 448.06C253.43 448.06 250.85 449.13 248.99 450.99C247.13 452.85 246.06 455.43 246.06 458.06C246.06 460.69 247.13 463.27 248.99 465.13C250.85 467 253.43 468.06 256.06 468.06C258.7 468.06 261.27 467 263.13 465.13C265 463.27 266.06 460.69 266.06 458.06C266.06 455.43 265 452.85 263.13 450.99C261.27 449.13 258.7 448.06 256.06 448.06Z" fill="#D5B665"/>
</g>
<defs>
<clipPath id="clip0_3_287">
<rect width="512" height="512" fill="white"/>
</clipPath>
</defs>
</svg>
